<svg width="438" height="132" viewBox="0 0 438 132" fill="none" xmlns="http://www.w3.org/2000/svg">
<g clip-path="url(#clip0_75_733)">
<rect width="438" height="132" rx="32" fill="#F64B3C"/>
<g clip-path="url(#clip1_75_733)">
<path d="M402 35.5561L407.778 29.7781L408.761 30.7613L402.983 36.5394L408.761 42.3174L407.778 43.3006L402 37.5226L396.222 43.3006L395.239 42.3174L401.017 36.5394L395.239 30.7613L396.222 29.7781L402 35.5561Z" fill="white"/>
</g>
<path d="M140.368 36.944C142.736 36.944 144.56 36.432 146.352 35.76V46H149.936V22H146.352V32.496C144.464 33.264 142.832 33.616 140.944 33.616C137.328 33.616 135.44 32.176 135.44 28.432V22H131.856V29.36C131.856 34.192 134.704 36.944 140.368 36.944ZM158.08 46H161.408V32.976H166.656V30.096H152.832V32.976H158.08V46ZM175.579 29.808C170.779 29.808 167.227 33.296 167.227 38.032C167.227 42.8 170.779 46.288 175.579 46.288C180.411 46.288 183.931 42.8 183.931 38.032C183.931 33.296 180.411 29.808 175.579 29.808ZM175.579 32.848C178.491 32.848 180.475 34.928 180.475 38.032C180.475 41.136 178.491 43.248 175.579 43.248C172.667 43.248 170.683 41.136 170.683 38.032C170.683 34.928 172.667 32.848 175.579 32.848ZM185.326 38.672V36.176H193.07V38.672H185.326ZM199.127 46H202.455V32.976H207.703V30.096H193.879V32.976H199.127V46ZM216.625 29.808C211.825 29.808 208.273 33.296 208.273 38.032C208.273 42.8 211.825 46.288 216.625 46.288C221.457 46.288 224.977 42.8 224.977 38.032C224.977 33.296 221.457 29.808 216.625 29.808ZM216.625 32.848C219.537 32.848 221.521 34.928 221.521 38.032C221.521 41.136 219.537 43.248 216.625 43.248C213.713 43.248 211.729 41.136 211.729 38.032C211.729 34.928 213.713 32.848 216.625 32.848ZM233.5 46H236.796V39.152H244.156V46H247.484V30.096H244.156V36.272H236.796V30.096H233.5V46ZM258.357 46.288C262.197 46.288 264.949 44.368 265.813 41.2L262.645 40.624C262.069 42.32 260.693 43.376 258.357 43.376C255.701 43.376 253.813 41.904 253.493 38.96H265.813C265.877 38.448 265.941 37.904 265.941 37.424C265.941 32.912 262.741 29.808 258.165 29.808C253.461 29.808 250.069 33.296 250.069 38.032C250.069 42.832 253.237 46.288 258.357 46.288ZM258.165 32.592C260.501 32.592 262.101 34 262.421 36.304H253.621C254.165 33.84 256.053 32.592 258.165 32.592ZM277.969 46H281.297V32.976H286.545V30.096H272.721V32.976H277.969V46ZM298.279 46H301.255V36.272C301.255 32.016 298.567 29.808 294.471 29.808C290.663 29.808 288.135 31.76 287.367 34.8L290.535 35.376C291.015 33.488 292.391 32.624 294.439 32.624C296.327 32.624 297.671 33.488 297.991 35.44L293.703 36.432C290.151 37.264 287.463 38.544 287.463 41.712C287.463 44.592 289.607 46.288 292.551 46.288C294.919 46.288 296.871 45.2 298.119 43.376L298.279 46ZM290.855 41.488C290.855 40.112 291.975 39.504 293.799 39.056L298.055 38V38.384C298.055 41.776 295.591 43.504 293.127 43.504C291.719 43.504 290.855 42.768 290.855 41.488ZM304.775 30.096V46H308.071V39.344H309.959L315.335 46H319.335L312.679 37.552L318.919 30.096H314.983L310.055 36.144H308.071V30.096H304.775ZM322.346 46.32C323.69 46.32 324.65 45.424 324.65 44.08C324.65 42.704 323.69 41.808 322.346 41.808C321.002 41.808 320.01 42.704 320.01 44.08C320.01 45.424 321.002 46.32 322.346 46.32ZM329.132 46.32C330.476 46.32 331.436 45.424 331.436 44.08C331.436 42.704 330.476 41.808 329.132 41.808C327.788 41.808 326.796 42.704 326.796 44.08C326.796 45.424 327.788 46.32 329.132 46.32ZM335.918 46.32C337.262 46.32 338.222 45.424 338.222 44.08C338.222 42.704 337.262 41.808 335.918 41.808C334.574 41.808 333.582 42.704 333.582 44.08C333.582 45.424 334.574 46.32 335.918 46.32Z" fill="white"/>
<path d="M137.42 74.498V70.2H138.4V80H137.42V75.422H132.1V80H131.12V70.2H132.1V74.498H137.42ZM143.73 72.832C144.775 72.832 145.61 73.2007 146.236 73.938C146.88 74.666 147.202 75.5293 147.202 76.528C147.202 76.5747 147.192 76.7193 147.174 76.962H141.028C141.121 77.662 141.42 78.222 141.924 78.642C142.428 79.062 143.058 79.272 143.814 79.272C144.878 79.272 145.629 78.8753 146.068 78.082L146.88 78.558C146.572 79.062 146.147 79.4587 145.606 79.748C145.074 80.028 144.472 80.168 143.8 80.168C142.698 80.168 141.802 79.8227 141.112 79.132C140.421 78.4413 140.076 77.564 140.076 76.5C140.076 75.4453 140.416 74.5727 141.098 73.882C141.779 73.182 142.656 72.832 143.73 72.832ZM143.73 73.728C143.002 73.728 142.39 73.9427 141.896 74.372C141.41 74.8013 141.121 75.366 141.028 76.066H146.25C146.147 75.3193 145.862 74.7453 145.396 74.344C144.91 73.9333 144.355 73.728 143.73 73.728ZM152.171 73H158.051V80H157.127V73.896H153.095V80H152.171V73ZM165.871 79.118C165.153 79.818 164.285 80.168 163.267 80.168C162.231 80.168 161.359 79.818 160.649 79.118C159.94 78.4087 159.585 77.536 159.585 76.5C159.585 75.464 159.94 74.596 160.649 73.896C161.359 73.1867 162.231 72.832 163.267 72.832C164.294 72.832 165.162 73.1867 165.871 73.896C166.59 74.596 166.949 75.464 166.949 76.5C166.949 77.5267 166.59 78.3993 165.871 79.118ZM161.307 78.474C161.839 79.006 162.493 79.272 163.267 79.272C164.042 79.272 164.695 79.006 165.227 78.474C165.759 77.9233 166.025 77.2653 166.025 76.5C166.025 75.7253 165.759 75.072 165.227 74.54C164.695 73.9987 164.042 73.728 163.267 73.728C162.493 73.728 161.839 73.9987 161.307 74.54C160.775 75.072 160.509 75.7253 160.509 76.5C160.509 77.2653 160.775 77.9233 161.307 78.474ZM168.95 73H173.962V80H173.038V73.896H169.874V77.018C169.874 78.1847 169.65 78.9873 169.202 79.426C168.764 79.8647 168.157 80.056 167.382 80V79.132C167.924 79.188 168.32 79.0573 168.572 78.74C168.824 78.4227 168.95 77.8487 168.95 77.018V73ZM178.691 78.866L180.959 73H181.939L178.943 80.644C178.663 81.3533 178.271 81.8993 177.767 82.282C177.273 82.674 176.722 82.8467 176.115 82.8V81.932C176.955 82.0347 177.595 81.5493 178.033 80.476L178.215 80.042L175.079 73H176.059L178.691 78.866ZM187.592 76.486V73H188.516V80H187.592V77.34C187.051 77.62 186.384 77.76 185.59 77.76C184.666 77.76 183.966 77.55 183.49 77.13C183.014 76.7007 182.776 76.0707 182.776 75.24V73H183.7V75.24C183.7 75.8187 183.85 76.2387 184.148 76.5C184.456 76.7613 184.928 76.892 185.562 76.892C186.272 76.892 186.948 76.7567 187.592 76.486ZM191.404 78.39L195.576 73H196.36V80H195.436V74.61L191.264 80H190.48V73H191.404V78.39ZM199.042 73H204.054V80H203.13V73.896H199.966V77.018C199.966 78.1847 199.742 78.9873 199.294 79.426C198.855 79.8647 198.249 80.056 197.474 80V79.132C198.015 79.188 198.412 79.0573 198.664 78.74C198.916 78.4227 199.042 77.8487 199.042 77.018V73ZM211.877 79.118C211.159 79.818 210.291 80.168 209.273 80.168C208.237 80.168 207.365 79.818 206.655 79.118C205.946 78.4087 205.591 77.536 205.591 76.5C205.591 75.464 205.946 74.596 206.655 73.896C207.365 73.1867 208.237 72.832 209.273 72.832C210.3 72.832 211.168 73.1867 211.877 73.896C212.596 74.596 212.955 75.464 212.955 76.5C212.955 77.5267 212.596 78.3993 211.877 79.118ZM207.313 78.474C207.845 79.006 208.499 79.272 209.273 79.272C210.048 79.272 210.701 79.006 211.233 78.474C211.765 77.9233 212.031 77.2653 212.031 76.5C212.031 75.7253 211.765 75.072 211.233 74.54C210.701 73.9987 210.048 73.728 209.273 73.728C208.499 73.728 207.845 73.9987 207.313 74.54C206.781 75.072 206.515 75.7253 206.515 76.5C206.515 77.2653 206.781 77.9233 207.313 78.474ZM217.763 80.168C216.709 80.168 215.831 79.818 215.131 79.118C214.431 78.3993 214.081 77.5267 214.081 76.5C214.081 75.464 214.431 74.596 215.131 73.896C215.831 73.1867 216.709 72.832 217.763 72.832C218.454 72.832 219.075 73 219.625 73.336C220.176 73.6627 220.577 74.106 220.829 74.666L220.073 75.1C219.887 74.68 219.583 74.3487 219.163 74.106C218.753 73.854 218.286 73.728 217.763 73.728C216.989 73.728 216.335 73.9987 215.803 74.54C215.271 75.072 215.005 75.7253 215.005 76.5C215.005 77.2653 215.271 77.9233 215.803 78.474C216.335 79.006 216.989 79.272 217.763 79.272C218.277 79.272 218.739 79.1507 219.149 78.908C219.569 78.6653 219.896 78.3293 220.129 77.9L220.899 78.348C220.61 78.908 220.185 79.3513 219.625 79.678C219.065 80.0047 218.445 80.168 217.763 80.168ZM223.15 75.66H225.068C225.712 75.66 226.263 75.8653 226.72 76.276C227.177 76.6773 227.406 77.1953 227.406 77.83C227.406 78.474 227.177 78.9967 226.72 79.398C226.281 79.7993 225.731 80 225.068 80H222.226V73H223.15V75.66ZM223.15 79.104H225.068C225.469 79.104 225.805 78.9873 226.076 78.754C226.347 78.5113 226.482 78.2033 226.482 77.83C226.482 77.4567 226.347 77.1533 226.076 76.92C225.805 76.6773 225.469 76.556 225.068 76.556H223.15V79.104ZM238.168 79.118C237.45 79.818 236.582 80.168 235.564 80.168C234.528 80.168 233.656 79.818 232.946 79.118C232.237 78.4087 231.882 77.536 231.882 76.5C231.882 75.464 232.237 74.596 232.946 73.896C233.656 73.1867 234.528 72.832 235.564 72.832C236.591 72.832 237.459 73.1867 238.168 73.896C238.887 74.596 239.246 75.464 239.246 76.5C239.246 77.5267 238.887 78.3993 238.168 79.118ZM233.604 78.474C234.136 79.006 234.79 79.272 235.564 79.272C236.339 79.272 236.992 79.006 237.524 78.474C238.056 77.9233 238.322 77.2653 238.322 76.5C238.322 75.7253 238.056 75.072 237.524 74.54C236.992 73.9987 236.339 73.728 235.564 73.728C234.79 73.728 234.136 73.9987 233.604 74.54C233.072 75.072 232.806 75.7253 232.806 76.5C232.806 77.2653 233.072 77.9233 233.604 78.474ZM239.679 73H245.559V73.896H243.081V80H242.157V73.896H239.679V73ZM246.685 73H252.565V80H251.641V73.896H247.609V80H246.685V73ZM258.271 72.832C259.27 72.832 260.119 73.1867 260.819 73.896C261.528 74.6053 261.883 75.4733 261.883 76.5C261.883 77.5267 261.528 78.3947 260.819 79.104C260.119 79.8133 259.27 80.168 258.271 80.168C257.03 80.168 256.087 79.6547 255.443 78.628V82.8H254.519V73H255.443V74.372C256.087 73.3453 257.03 72.832 258.271 72.832ZM256.241 78.474C256.773 79.006 257.426 79.272 258.201 79.272C258.976 79.272 259.629 79.006 260.161 78.474C260.693 77.9233 260.959 77.2653 260.959 76.5C260.959 75.7253 260.693 75.072 260.161 74.54C259.629 73.9987 258.976 73.728 258.201 73.728C257.426 73.728 256.773 73.9987 256.241 74.54C255.709 75.072 255.443 75.7253 255.443 76.5C255.443 77.2653 255.709 77.9233 256.241 78.474ZM269.439 74.372V73H270.363V80H269.439V78.628C268.795 79.6547 267.853 80.168 266.611 80.168C265.613 80.168 264.759 79.8133 264.049 79.104C263.349 78.3947 262.999 77.5267 262.999 76.5C262.999 75.4733 263.349 74.6053 264.049 73.896C264.759 73.1867 265.613 72.832 266.611 72.832C267.853 72.832 268.795 73.3453 269.439 74.372ZM264.721 78.474C265.253 79.006 265.907 79.272 266.681 79.272C267.456 79.272 268.109 79.006 268.641 78.474C269.173 77.9233 269.439 77.2653 269.439 76.5C269.439 75.7253 269.173 75.072 268.641 74.54C268.109 73.9987 267.456 73.728 266.681 73.728C265.907 73.728 265.253 73.9987 264.721 74.54C264.189 75.072 263.923 75.7253 263.923 76.5C263.923 77.2653 264.189 77.9233 264.721 78.474ZM276.772 76.402C277.537 76.682 277.92 77.228 277.92 78.04C277.92 78.6187 277.724 79.09 277.332 79.454C276.949 79.818 276.413 80 275.722 80H272.32V73H275.442C276.114 73 276.637 73.1727 277.01 73.518C277.393 73.8633 277.584 74.316 277.584 74.876C277.584 75.576 277.313 76.0847 276.772 76.402ZM275.442 73.896H273.244V76.024H275.442C276.254 76.024 276.66 75.66 276.66 74.932C276.66 74.6053 276.553 74.3533 276.338 74.176C276.133 73.9893 275.834 73.896 275.442 73.896ZM273.244 79.104H275.722C276.133 79.104 276.445 79.006 276.66 78.81C276.884 78.614 276.996 78.3387 276.996 77.984C276.996 77.648 276.884 77.3867 276.66 77.2C276.445 77.0133 276.133 76.92 275.722 76.92H273.244V79.104ZM280.244 78.39L284.416 73H285.2V80H284.276V74.61L280.104 80H279.32V73H280.244V78.39ZM286.314 73H292.194V73.896H289.716V80H288.792V73.896H286.314V73ZM294.244 75.66H296.162C296.806 75.66 297.357 75.8653 297.814 76.276C298.271 76.6773 298.5 77.1953 298.5 77.83C298.5 78.474 298.271 78.9967 297.814 79.398C297.375 79.7993 296.825 80 296.162 80H293.32V73H294.244V75.66ZM294.244 79.104H296.162C296.563 79.104 296.899 78.9873 297.17 78.754C297.441 78.5113 297.576 78.2033 297.576 77.83C297.576 77.4567 297.441 77.1533 297.17 76.92C296.899 76.6773 296.563 76.556 296.162 76.556H294.244V79.104ZM309.262 79.118C308.543 79.818 307.675 80.168 306.658 80.168C305.622 80.168 304.749 79.818 304.04 79.118C303.331 78.4087 302.976 77.536 302.976 76.5C302.976 75.464 303.331 74.596 304.04 73.896C304.749 73.1867 305.622 72.832 306.658 72.832C307.685 72.832 308.553 73.1867 309.262 73.896C309.981 74.596 310.34 75.464 310.34 76.5C310.34 77.5267 309.981 78.3993 309.262 79.118ZM304.698 78.474C305.23 79.006 305.883 79.272 306.658 79.272C307.433 79.272 308.086 79.006 308.618 78.474C309.15 77.9233 309.416 77.2653 309.416 76.5C309.416 75.7253 309.15 75.072 308.618 74.54C308.086 73.9987 307.433 73.728 306.658 73.728C305.883 73.728 305.23 73.9987 304.698 74.54C304.166 75.072 303.9 75.7253 303.9 76.5C303.9 77.2653 304.166 77.9233 304.698 78.474ZM310.773 73H316.653V73.896H314.175V80H313.251V73.896H310.773V73ZM321.117 76.402C321.929 76.71 322.335 77.27 322.335 78.082C322.335 78.67 322.107 79.1647 321.649 79.566C321.211 79.9673 320.567 80.168 319.717 80.168C318.299 80.168 317.375 79.608 316.945 78.488L317.729 78.026C318.028 78.8567 318.691 79.272 319.717 79.272C320.249 79.272 320.665 79.16 320.963 78.936C321.262 78.7027 321.411 78.3993 321.411 78.026C321.411 77.69 321.29 77.424 321.047 77.228C320.805 77.0227 320.478 76.92 320.067 76.92H319.045V76.024H319.787C320.189 76.024 320.501 75.926 320.725 75.73C320.959 75.5247 321.075 75.2447 321.075 74.89C321.075 74.554 320.935 74.2787 320.655 74.064C320.385 73.84 320.025 73.728 319.577 73.728C318.709 73.728 318.126 74.078 317.827 74.778L317.057 74.33C317.524 73.3313 318.364 72.832 319.577 72.832C320.324 72.832 320.912 73.028 321.341 73.42C321.78 73.8027 321.999 74.274 321.999 74.834C321.999 75.5527 321.705 76.0753 321.117 76.402ZM324.664 75.66H326.582C327.226 75.66 327.776 75.8653 328.234 76.276C328.691 76.6773 328.92 77.1953 328.92 77.83C328.92 78.474 328.691 78.9967 328.234 79.398C327.795 79.7993 327.244 80 326.582 80H323.74V73H324.664V75.66ZM329.9 80V73H330.824V80H329.9ZM324.664 79.104H326.582C326.983 79.104 327.319 78.9873 327.59 78.754C327.86 78.5113 327.996 78.2033 327.996 77.83C327.996 77.4567 327.86 77.1533 327.59 76.92C327.319 76.6773 326.983 76.556 326.582 76.556H324.664V79.104ZM337.243 76.402C338.008 76.682 338.391 77.228 338.391 78.04C338.391 78.6187 338.195 79.09 337.803 79.454C337.42 79.818 336.883 80 336.193 80H332.791V73H335.913C336.585 73 337.107 73.1727 337.481 73.518C337.863 73.8633 338.055 74.316 338.055 74.876C338.055 75.576 337.784 76.0847 337.243 76.402ZM335.913 73.896H333.715V76.024H335.913C336.725 76.024 337.131 75.66 337.131 74.932C337.131 74.6053 337.023 74.3533 336.809 74.176C336.603 73.9893 336.305 73.896 335.913 73.896ZM333.715 79.104H336.193C336.603 79.104 336.916 79.006 337.131 78.81C337.355 78.614 337.467 78.3387 337.467 77.984C337.467 77.648 337.355 77.3867 337.131 77.2C336.916 77.0133 336.603 76.92 336.193 76.92H333.715V79.104ZM341.054 79.37C341.054 79.5847 340.979 79.7667 340.83 79.916C340.68 80.0653 340.498 80.14 340.284 80.14C340.069 80.14 339.887 80.0653 339.738 79.916C339.588 79.7667 339.514 79.5847 339.514 79.37C339.514 79.1553 339.588 78.9733 339.738 78.824C339.887 78.6747 340.069 78.6 340.284 78.6C340.498 78.6 340.68 78.6747 340.83 78.824C340.979 78.9733 341.054 79.1553 341.054 79.37ZM131.12 92.2H138.12V102H137.14V93.124H132.1V102H131.12V92.2ZM146.088 101.118C145.37 101.818 144.502 102.168 143.484 102.168C142.448 102.168 141.576 101.818 140.866 101.118C140.157 100.409 139.802 99.536 139.802 98.5C139.802 97.464 140.157 96.596 140.866 95.896C141.576 95.1867 142.448 94.832 143.484 94.832C144.511 94.832 145.379 95.1867 146.088 95.896C146.807 96.596 147.166 97.464 147.166 98.5C147.166 99.5267 146.807 100.399 146.088 101.118ZM141.524 100.474C142.056 101.006 142.71 101.272 143.484 101.272C144.259 101.272 144.912 101.006 145.444 100.474C145.976 99.9233 146.242 99.2653 146.242 98.5C146.242 97.7253 145.976 97.072 145.444 96.54C144.912 95.9987 144.259 95.728 143.484 95.728C142.71 95.728 142.056 95.9987 141.524 96.54C140.992 97.072 140.726 97.7253 140.726 98.5C140.726 99.2653 140.992 99.9233 141.524 100.474ZM148.712 95H154.592V102H153.668V95.896H149.636V102H148.712V95ZM160.298 94.832C161.297 94.832 162.146 95.1867 162.846 95.896C163.556 96.6053 163.91 97.4733 163.91 98.5C163.91 99.5267 163.556 100.395 162.846 101.104C162.146 101.813 161.297 102.168 160.298 102.168C159.057 102.168 158.114 101.655 157.47 100.628V104.8H156.546V95H157.47V96.372C158.114 95.3453 159.057 94.832 160.298 94.832ZM158.268 100.474C158.8 101.006 159.454 101.272 160.228 101.272C161.003 101.272 161.656 101.006 162.188 100.474C162.72 99.9233 162.986 99.2653 162.986 98.5C162.986 97.7253 162.72 97.072 162.188 96.54C161.656 95.9987 161.003 95.728 160.228 95.728C159.454 95.728 158.8 95.9987 158.268 96.54C157.736 97.072 157.47 97.7253 157.47 98.5C157.47 99.2653 157.736 99.9233 158.268 100.474ZM171.313 101.118C170.594 101.818 169.726 102.168 168.709 102.168C167.673 102.168 166.8 101.818 166.091 101.118C165.381 100.409 165.027 99.536 165.027 98.5C165.027 97.464 165.381 96.596 166.091 95.896C166.8 95.1867 167.673 94.832 168.709 94.832C169.735 94.832 170.603 95.1867 171.313 95.896C172.031 96.596 172.391 97.464 172.391 98.5C172.391 99.5267 172.031 100.399 171.313 101.118ZM166.749 100.474C167.281 101.006 167.934 101.272 168.709 101.272C169.483 101.272 170.137 101.006 170.669 100.474C171.201 99.9233 171.467 99.2653 171.467 98.5C171.467 97.7253 171.201 97.072 170.669 96.54C170.137 95.9987 169.483 95.728 168.709 95.728C167.934 95.728 167.281 95.9987 166.749 96.54C166.217 97.072 165.951 97.7253 165.951 98.5C165.951 99.2653 166.217 99.9233 166.749 100.474ZM177.045 102.168C176.046 102.168 175.206 101.837 174.525 101.174C173.853 100.502 173.517 99.634 173.517 98.57C173.517 97.3753 173.694 96.4607 174.049 95.826C174.404 95.182 175.122 94.5987 176.205 94.076C176.55 93.9173 176.821 93.796 177.017 93.712C177.344 93.5813 177.6 93.4693 177.787 93.376C178.599 93.0027 179.01 92.5407 179.019 91.99L179.747 92.41C179.7 92.6433 179.626 92.8533 179.523 93.04C179.402 93.2453 179.28 93.4087 179.159 93.53C179.047 93.6513 178.87 93.782 178.627 93.922C178.468 94.0153 178.277 94.118 178.053 94.23L177.353 94.524L176.695 94.804C176.051 95.084 175.57 95.378 175.253 95.686C174.945 95.9847 174.726 96.3767 174.595 96.862C174.894 96.4607 175.286 96.1573 175.771 95.952C176.256 95.7373 176.746 95.63 177.241 95.63C178.174 95.63 178.944 95.938 179.551 96.554C180.167 97.1607 180.475 97.94 180.475 98.892C180.475 99.8347 180.148 100.619 179.495 101.244C178.851 101.86 178.034 102.168 177.045 102.168ZM175.225 100.558C175.71 101.015 176.317 101.244 177.045 101.244C177.773 101.244 178.37 101.025 178.837 100.586C179.313 100.138 179.551 99.5733 179.551 98.892C179.551 98.2013 179.327 97.6367 178.879 97.198C178.44 96.75 177.852 96.526 177.115 96.526C176.452 96.526 175.85 96.736 175.309 97.156C174.768 97.5573 174.497 98.108 174.497 98.808C174.497 99.5173 174.74 100.101 175.225 100.558ZM184.379 100.866L186.647 95H187.627L184.631 102.644C184.351 103.353 183.959 103.899 183.455 104.282C182.96 104.674 182.41 104.847 181.803 104.8V103.932C182.643 104.035 183.282 103.549 183.721 102.476L183.903 102.042L180.767 95H181.747L184.379 100.866ZM193.504 93.88H189.864V93.068H193.504V93.88ZM189.668 100.39L193.84 95H194.624V102H193.7V96.61L189.528 102H188.744V95H189.668V100.39ZM195.738 95H201.618V95.896H199.14V102H198.216V95.896H195.738V95ZM205.704 94.832C206.75 94.832 207.585 95.2007 208.21 95.938C208.854 96.666 209.176 97.5293 209.176 98.528C209.176 98.5747 209.167 98.7193 209.148 98.962H203.002C203.096 99.662 203.394 100.222 203.898 100.642C204.402 101.062 205.032 101.272 205.788 101.272C206.852 101.272 207.604 100.875 208.042 100.082L208.854 100.558C208.546 101.062 208.122 101.459 207.58 101.748C207.048 102.028 206.446 102.168 205.774 102.168C204.673 102.168 203.777 101.823 203.086 101.132C202.396 100.441 202.05 99.564 202.05 98.5C202.05 97.4453 202.391 96.5727 203.072 95.882C203.754 95.182 204.631 94.832 205.704 94.832ZM205.704 95.728C204.976 95.728 204.365 95.9427 203.87 96.372C203.385 96.8013 203.096 97.366 203.002 98.066H208.224C208.122 97.3193 207.837 96.7453 207.37 96.344C206.885 95.9333 206.33 95.728 205.704 95.728ZM217.38 94.832C218.425 94.832 219.261 95.2007 219.886 95.938C220.53 96.666 220.852 97.5293 220.852 98.528C220.852 98.5747 220.843 98.7193 220.824 98.962H214.678C214.771 99.662 215.07 100.222 215.574 100.642C216.078 101.062 216.708 101.272 217.464 101.272C218.528 101.272 219.279 100.875 219.718 100.082L220.53 100.558C220.222 101.062 219.797 101.459 219.256 101.748C218.724 102.028 218.122 102.168 217.45 102.168C216.349 102.168 215.453 101.823 214.762 101.132C214.071 100.441 213.726 99.564 213.726 98.5C213.726 97.4453 214.067 96.5727 214.748 95.882C215.429 95.182 216.307 94.832 217.38 94.832ZM217.38 95.728C216.652 95.728 216.041 95.9427 215.546 96.372C215.061 96.8013 214.771 97.366 214.678 98.066H219.9C219.797 97.3193 219.513 96.7453 219.046 96.344C218.561 95.9333 218.005 95.728 217.38 95.728ZM231.702 95V101.104H232.682V103.876H231.758V102H222.322V95H223.246V101.104H226.55V95H227.474V101.104H230.778V95H231.702ZM237.04 94.832C238.086 94.832 238.921 95.2007 239.546 95.938C240.19 96.666 240.512 97.5293 240.512 98.528C240.512 98.5747 240.503 98.7193 240.484 98.962H234.338C234.432 99.662 234.73 100.222 235.234 100.642C235.738 101.062 236.368 101.272 237.124 101.272C238.188 101.272 238.94 100.875 239.378 100.082L240.19 100.558C239.882 101.062 239.458 101.459 238.916 101.748C238.384 102.028 237.782 102.168 237.11 102.168C236.009 102.168 235.113 101.823 234.422 101.132C233.732 100.441 233.386 99.564 233.386 98.5C233.386 97.4453 233.727 96.5727 234.408 95.882C235.09 95.182 235.967 94.832 237.04 94.832ZM237.04 95.728C236.312 95.728 235.701 95.9427 235.206 96.372C234.721 96.8013 234.432 97.366 234.338 98.066H239.56C239.458 97.3193 239.173 96.7453 238.706 96.344C238.221 95.9333 237.666 95.728 237.04 95.728ZM249.234 94.832C250.233 94.832 251.082 95.1867 251.782 95.896C252.491 96.6053 252.846 97.4733 252.846 98.5C252.846 99.5267 252.491 100.395 251.782 101.104C251.082 101.813 250.233 102.168 249.234 102.168C247.993 102.168 247.05 101.655 246.406 100.628V104.8H245.482V95H246.406V96.372C247.05 95.3453 247.993 94.832 249.234 94.832ZM247.204 100.474C247.736 101.006 248.389 101.272 249.164 101.272C249.939 101.272 250.592 101.006 251.124 100.474C251.656 99.9233 251.922 99.2653 251.922 98.5C251.922 97.7253 251.656 97.072 251.124 96.54C250.592 95.9987 249.939 95.728 249.164 95.728C248.389 95.728 247.736 95.9987 247.204 96.54C246.672 97.072 246.406 97.7253 246.406 98.5C246.406 99.2653 246.672 99.9233 247.204 100.474ZM260.402 96.372V95H261.326V102H260.402V100.628C259.758 101.655 258.816 102.168 257.574 102.168C256.576 102.168 255.722 101.813 255.012 101.104C254.312 100.395 253.962 99.5267 253.962 98.5C253.962 97.4733 254.312 96.6053 255.012 95.896C255.722 95.1867 256.576 94.832 257.574 94.832C258.816 94.832 259.758 95.3453 260.402 96.372ZM255.684 100.474C256.216 101.006 256.87 101.272 257.644 101.272C258.419 101.272 259.072 101.006 259.604 100.474C260.136 99.9233 260.402 99.2653 260.402 98.5C260.402 97.7253 260.136 97.072 259.604 96.54C259.072 95.9987 258.419 95.728 257.644 95.728C256.87 95.728 256.216 95.9987 255.684 96.54C255.152 97.072 254.886 97.7253 254.886 98.5C254.886 99.2653 255.152 99.9233 255.684 100.474ZM266.895 98.402C267.707 98.71 268.113 99.27 268.113 100.082C268.113 100.67 267.884 101.165 267.427 101.566C266.988 101.967 266.344 102.168 265.495 102.168C264.076 102.168 263.152 101.608 262.723 100.488L263.507 100.026C263.805 100.857 264.468 101.272 265.495 101.272C266.027 101.272 266.442 101.16 266.741 100.936C267.039 100.703 267.189 100.399 267.189 100.026C267.189 99.69 267.067 99.424 266.825 99.228C266.582 99.0227 266.255 98.92 265.845 98.92H264.823V98.024H265.565C265.966 98.024 266.279 97.926 266.503 97.73C266.736 97.5247 266.853 97.2447 266.853 96.89C266.853 96.554 266.713 96.2787 266.433 96.064C266.162 95.84 265.803 95.728 265.355 95.728C264.487 95.728 263.903 96.078 263.605 96.778L262.835 96.33C263.301 95.3313 264.141 94.832 265.355 94.832C266.101 94.832 266.689 95.028 267.119 95.42C267.557 95.8027 267.777 96.274 267.777 96.834C267.777 97.5527 267.483 98.0753 266.895 98.402ZM270.497 99.34H269.797L269.587 95V92.2H270.707V95L270.497 99.34ZM270.917 101.37C270.917 101.585 270.842 101.767 270.693 101.916C270.544 102.065 270.362 102.14 270.147 102.14C269.932 102.14 269.75 102.065 269.601 101.916C269.452 101.767 269.377 101.585 269.377 101.37C269.377 101.155 269.452 100.973 269.601 100.824C269.75 100.675 269.932 100.6 270.147 100.6C270.362 100.6 270.544 100.675 270.693 100.824C270.842 100.973 270.917 101.155 270.917 101.37Z" fill="white"/>
<circle cx="33.9429" cy="81.8291" r="6.82918" fill="#C81912"/>
<circle cx="79" cy="72" r="13" fill="#C81912"/>
<path fill-rule="evenodd" clip-rule="evenodd" d="M32.5511 94.4389C32.4191 93.7781 31.9357 93.2427 31.2918 93.0441C30.5686 92.8211 29.7827 93.0647 29.3124 93.6576L26.6097 97.0647C24.7585 99.3983 21.7904 100.502 18.8235 100.237C11.5519 99.5888 4.04597 100.17 -3.42021 102.141C-37.9518 111.255 -58.5567 146.637 -49.4425 181.168C-40.3282 215.7 -4.9463 236.305 29.5853 227.191C64.1169 218.077 84.7218 182.695 75.6076 148.163C70.3813 128.362 56.5177 113.14 39.13 105.475C36.2342 104.198 34.0008 101.697 33.3809 98.5934L32.5511 94.4389Z" fill="#C81912"/>
<circle cx="21.5475" cy="49.5475" r="3.49096" transform="rotate(-22.0902 21.5475 49.5475)" fill="#C81912"/>
</g>
<defs>
<clipPath id="clip0_75_733">
<rect width="438" height="132" rx="32" fill="white"/>
</clipPath>
<clipPath id="clip1_75_733">
<rect width="24" height="24" fill="white" transform="translate(390 24)"/>
</clipPath>
</defs>
</svg>
