<svg width="438" height="132" viewBox="0 0 438 132" fill="none" xmlns="http://www.w3.org/2000/svg">
<g clip-path="url(#clip0_75_718)">
<rect width="438" height="132" rx="32" fill="#B5FFA2"/>
<circle cx="20.6074" cy="66.2955" r="9.29547" fill="#7DED61"/>
<circle cx="80.0986" cy="104.717" r="3.71819" fill="#7DED61"/>
<path d="M79.4438 68.0254C82.4971 75.5484 78.8737 84.1222 71.3507 87.1755C70.5208 87.5123 69.6781 87.7679 68.8315 87.9459C64.1204 88.9367 58.8591 90.2841 56.3382 94.3856C53.3951 99.1741 55.0036 105.393 59.3496 108.957C68.015 116.064 75.0268 125.432 79.3829 136.619C92.9059 171.348 75.7149 210.464 40.9856 223.987C6.25636 237.51 -32.8599 220.319 -46.3829 185.59C-59.9059 150.861 -42.7149 111.745 -7.98562 98.2215C7.18342 92.3149 23.1894 92.2679 37.5341 96.9824C42.7299 98.6901 48.6536 97.072 51.5174 92.4126L52.5823 90.68C54.694 87.2442 53.7172 82.8192 52.2006 79.0823C49.1473 71.5593 52.7707 62.9855 60.2937 59.9322C67.8167 56.8789 76.3906 60.5024 79.4438 68.0254Z" fill="#7DED61"/>
<path d="M136.176 46H139.92L151.056 22H147.312L140.912 35.792L134.096 22H130.16L139.056 39.824L136.176 46ZM148.378 38.032C148.378 42.8 151.834 46.288 156.506 46.288C160.474 46.288 163.482 43.824 164.026 40.528L160.73 39.952C160.314 41.936 158.81 43.248 156.506 43.248C153.754 43.248 151.834 41.168 151.834 38.032C151.834 34.864 153.786 32.848 156.538 32.848C158.65 32.848 160.122 34.064 160.602 35.984L163.93 35.44C163.194 32.048 160.41 29.808 156.538 29.808C151.866 29.808 148.378 33.264 148.378 38.032ZM166.256 46H169.552V32.976H176.688V46H179.984V30.096H166.256V46ZM190.895 46.288C194.735 46.288 197.487 44.368 198.351 41.2L195.183 40.624C194.607 42.32 193.231 43.376 190.895 43.376C188.239 43.376 186.351 41.904 186.031 38.96H198.351C198.415 38.448 198.479 37.904 198.479 37.424C198.479 32.912 195.279 29.808 190.703 29.808C185.999 29.808 182.607 33.296 182.607 38.032C182.607 42.832 185.775 46.288 190.895 46.288ZM190.703 32.592C193.039 32.592 194.639 34 194.959 36.304H186.159C186.703 33.84 188.591 32.592 190.703 32.592ZM201.203 46H222.259V30.096H218.931V43.12H213.363V30.096H210.067V43.12H204.499V30.096H201.203V46ZM226.115 46H229.411V39.152H236.771V46H240.099V30.096H236.771V36.272H229.411V30.096H226.115V46ZM251.036 29.808C246.236 29.808 242.684 33.296 242.684 38.032C242.684 42.8 246.236 46.288 251.036 46.288C255.868 46.288 259.388 42.8 259.388 38.032C259.388 33.296 255.868 29.808 251.036 29.808ZM251.036 32.848C253.948 32.848 255.932 34.928 255.932 38.032C255.932 41.136 253.948 43.248 251.036 43.248C248.124 43.248 246.14 41.136 246.14 38.032C246.14 34.928 248.124 32.848 251.036 32.848ZM263.056 22L263.6 38.48H266.448L266.96 22H263.056ZM265.008 46.32C266.384 46.32 267.312 45.424 267.312 44.08C267.312 42.704 266.384 41.808 265.008 41.808C263.664 41.808 262.704 42.704 262.704 44.08C262.704 45.424 263.664 46.32 265.008 46.32Z" fill="#333333"/>
<path d="M135.698 80.168C134.205 80.168 132.977 79.678 132.016 78.698C131.045 77.7087 130.56 76.5093 130.56 75.1C130.56 73.6907 131.045 72.4913 132.016 71.502C132.977 70.522 134.205 70.032 135.698 70.032C136.594 70.032 137.42 70.2513 138.176 70.69C138.932 71.1193 139.52 71.7027 139.94 72.44L139.072 72.944C138.764 72.3467 138.307 71.8707 137.7 71.516C137.093 71.1613 136.426 70.984 135.698 70.984C134.466 70.984 133.467 71.3807 132.702 72.174C131.927 72.9767 131.54 73.952 131.54 75.1C131.54 76.248 131.927 77.2233 132.702 78.026C133.467 78.8193 134.466 79.216 135.698 79.216C136.426 79.216 137.093 79.0387 137.7 78.684C138.307 78.3293 138.764 77.8533 139.072 77.256L139.94 77.746C139.539 78.4833 138.955 79.0713 138.19 79.51C137.425 79.9487 136.594 80.168 135.698 80.168ZM141.412 73H147.292V80H146.368V73.896H142.336V80H141.412V73ZM155.266 74.372V73H156.19V80H155.266V78.628C154.622 79.6547 153.679 80.168 152.438 80.168C151.439 80.168 150.585 79.8133 149.876 79.104C149.176 78.3947 148.826 77.5267 148.826 76.5C148.826 75.4733 149.176 74.6053 149.876 73.896C150.585 73.1867 151.439 72.832 152.438 72.832C153.679 72.832 154.622 73.3453 155.266 74.372ZM150.548 78.474C151.08 79.006 151.733 79.272 152.508 79.272C153.282 79.272 153.936 79.006 154.468 78.474C155 77.9233 155.266 77.2653 155.266 76.5C155.266 75.7253 155 75.072 154.468 74.54C153.936 73.9987 153.282 73.728 152.508 73.728C151.733 73.728 151.08 73.9987 150.548 74.54C150.016 75.072 149.75 75.7253 149.75 76.5C149.75 77.2653 150.016 77.9233 150.548 78.474ZM161.408 80.168C160.353 80.168 159.476 79.818 158.776 79.118C158.076 78.3993 157.726 77.5267 157.726 76.5C157.726 75.464 158.076 74.596 158.776 73.896C159.476 73.1867 160.353 72.832 161.408 72.832C162.099 72.832 162.719 73 163.27 73.336C163.821 73.6627 164.222 74.106 164.474 74.666L163.718 75.1C163.531 74.68 163.228 74.3487 162.808 74.106C162.397 73.854 161.931 73.728 161.408 73.728C160.633 73.728 159.98 73.9987 159.448 74.54C158.916 75.072 158.65 75.7253 158.65 76.5C158.65 77.2653 158.916 77.9233 159.448 78.474C159.98 79.006 160.633 79.272 161.408 79.272C161.921 79.272 162.383 79.1507 162.794 78.908C163.214 78.6653 163.541 78.3293 163.774 77.9L164.544 78.348C164.255 78.908 163.83 79.3513 163.27 79.678C162.71 80.0047 162.089 80.168 161.408 80.168ZM166.795 78.39L170.967 73H171.751V80H170.827V74.61L166.655 80H165.871V73H166.795V78.39ZM176.813 80.168C175.814 80.168 174.974 79.8367 174.293 79.174C173.621 78.502 173.285 77.634 173.285 76.57C173.285 75.3753 173.462 74.4607 173.817 73.826C174.171 73.182 174.89 72.5987 175.973 72.076C176.318 71.9173 176.589 71.796 176.785 71.712C177.111 71.5813 177.368 71.4693 177.555 71.376C178.367 71.0027 178.777 70.5407 178.787 69.99L179.515 70.41C179.468 70.6433 179.393 70.8533 179.291 71.04C179.169 71.2453 179.048 71.4087 178.927 71.53C178.815 71.6513 178.637 71.782 178.395 71.922C178.236 72.0153 178.045 72.118 177.821 72.23L177.121 72.524L176.463 72.804C175.819 73.084 175.338 73.378 175.021 73.686C174.713 73.9847 174.493 74.3767 174.363 74.862C174.661 74.4607 175.053 74.1573 175.539 73.952C176.024 73.7373 176.514 73.63 177.009 73.63C177.942 73.63 178.712 73.938 179.319 74.554C179.935 75.1607 180.243 75.94 180.243 76.892C180.243 77.8347 179.916 78.6187 179.263 79.244C178.619 79.86 177.802 80.168 176.813 80.168ZM174.993 78.558C175.478 79.0153 176.085 79.244 176.813 79.244C177.541 79.244 178.138 79.0247 178.605 78.586C179.081 78.138 179.319 77.5733 179.319 76.892C179.319 76.2013 179.095 75.6367 178.647 75.198C178.208 74.75 177.62 74.526 176.883 74.526C176.22 74.526 175.618 74.736 175.077 75.156C174.535 75.5573 174.265 76.108 174.265 76.808C174.265 77.5173 174.507 78.1007 174.993 78.558ZM187.514 79.118C186.795 79.818 185.927 80.168 184.91 80.168C183.874 80.168 183.001 79.818 182.292 79.118C181.583 78.4087 181.228 77.536 181.228 76.5C181.228 75.464 181.583 74.596 182.292 73.896C183.001 73.1867 183.874 72.832 184.91 72.832C185.937 72.832 186.805 73.1867 187.514 73.896C188.233 74.596 188.592 75.464 188.592 76.5C188.592 77.5267 188.233 78.3993 187.514 79.118ZM182.95 78.474C183.482 79.006 184.135 79.272 184.91 79.272C185.685 79.272 186.338 79.006 186.87 78.474C187.402 77.9233 187.668 77.2653 187.668 76.5C187.668 75.7253 187.402 75.072 186.87 74.54C186.338 73.9987 185.685 73.728 184.91 73.728C184.135 73.728 183.482 73.9987 182.95 74.54C182.418 75.072 182.152 75.7253 182.152 76.5C182.152 77.2653 182.418 77.9233 182.95 78.474ZM197.25 76.402C198.062 76.71 198.468 77.27 198.468 78.082C198.468 78.67 198.24 79.1647 197.782 79.566C197.344 79.9673 196.7 80.168 195.85 80.168C194.432 80.168 193.508 79.608 193.078 78.488L193.862 78.026C194.161 78.8567 194.824 79.272 195.85 79.272C196.382 79.272 196.798 79.16 197.096 78.936C197.395 78.7027 197.544 78.3993 197.544 78.026C197.544 77.69 197.423 77.424 197.18 77.228C196.938 77.0227 196.611 76.92 196.2 76.92H195.178V76.024H195.92C196.322 76.024 196.634 75.926 196.858 75.73C197.092 75.5247 197.208 75.2447 197.208 74.89C197.208 74.554 197.068 74.2787 196.788 74.064C196.518 73.84 196.158 73.728 195.71 73.728C194.842 73.728 194.259 74.078 193.96 74.778L193.19 74.33C193.657 73.3313 194.497 72.832 195.71 72.832C196.457 72.832 197.045 73.028 197.474 73.42C197.913 73.8027 198.132 74.274 198.132 74.834C198.132 75.5527 197.838 76.0753 197.25 76.402ZM205.893 74.372V73H206.817V80H205.893V78.628C205.249 79.6547 204.306 80.168 203.065 80.168C202.066 80.168 201.212 79.8133 200.503 79.104C199.803 78.3947 199.453 77.5267 199.453 76.5C199.453 75.4733 199.803 74.6053 200.503 73.896C201.212 73.1867 202.066 72.832 203.065 72.832C204.306 72.832 205.249 73.3453 205.893 74.372ZM201.175 78.474C201.707 79.006 202.36 79.272 203.135 79.272C203.909 79.272 204.563 79.006 205.095 78.474C205.627 77.9233 205.893 77.2653 205.893 76.5C205.893 75.7253 205.627 75.072 205.095 74.54C204.563 73.9987 203.909 73.728 203.135 73.728C202.36 73.728 201.707 73.9987 201.175 74.54C200.643 75.072 200.377 75.7253 200.377 76.5C200.377 77.2653 200.643 77.9233 201.175 78.474ZM218.139 79.118C217.42 79.818 216.552 80.168 215.535 80.168C214.499 80.168 213.626 79.818 212.917 79.118C212.208 78.4087 211.853 77.536 211.853 76.5C211.853 75.464 212.208 74.596 212.917 73.896C213.626 73.1867 214.499 72.832 215.535 72.832C216.562 72.832 217.43 73.1867 218.139 73.896C218.858 74.596 219.217 75.464 219.217 76.5C219.217 77.5267 218.858 78.3993 218.139 79.118ZM213.575 78.474C214.107 79.006 214.76 79.272 215.535 79.272C216.31 79.272 216.963 79.006 217.495 78.474C218.027 77.9233 218.293 77.2653 218.293 76.5C218.293 75.7253 218.027 75.072 217.495 74.54C216.963 73.9987 216.31 73.728 215.535 73.728C214.76 73.728 214.107 73.9987 213.575 74.54C213.043 75.072 212.777 75.7253 212.777 76.5C212.777 77.2653 213.043 77.9233 213.575 78.474ZM219.65 73H225.53V73.896H223.052V80H222.128V73.896H219.65V73ZM229.994 76.402C230.806 76.71 231.212 77.27 231.212 78.082C231.212 78.67 230.984 79.1647 230.526 79.566C230.088 79.9673 229.444 80.168 228.594 80.168C227.176 80.168 226.252 79.608 225.822 78.488L226.606 78.026C226.905 78.8567 227.568 79.272 228.594 79.272C229.126 79.272 229.542 79.16 229.84 78.936C230.139 78.7027 230.288 78.3993 230.288 78.026C230.288 77.69 230.167 77.424 229.924 77.228C229.682 77.0227 229.355 76.92 228.944 76.92H227.922V76.024H228.664C229.066 76.024 229.378 75.926 229.602 75.73C229.836 75.5247 229.952 75.2447 229.952 74.89C229.952 74.554 229.812 74.2787 229.532 74.064C229.262 73.84 228.902 73.728 228.454 73.728C227.586 73.728 227.003 74.078 226.704 74.778L225.934 74.33C226.401 73.3313 227.241 72.832 228.454 72.832C229.201 72.832 229.789 73.028 230.218 73.42C230.657 73.8027 230.876 74.274 230.876 74.834C230.876 75.5527 230.582 76.0753 229.994 76.402ZM233.541 75.66H235.459C236.103 75.66 236.653 75.8653 237.111 76.276C237.568 76.6773 237.797 77.1953 237.797 77.83C237.797 78.474 237.568 78.9967 237.111 79.398C236.672 79.7993 236.121 80 235.459 80H232.617V73H233.541V75.66ZM238.777 80V73H239.701V80H238.777ZM233.541 79.104H235.459C235.86 79.104 236.196 78.9873 236.467 78.754C236.737 78.5113 236.873 78.2033 236.873 77.83C236.873 77.4567 236.737 77.1533 236.467 76.92C236.196 76.6773 235.86 76.556 235.459 76.556H233.541V79.104ZM246.12 76.402C246.885 76.682 247.268 77.228 247.268 78.04C247.268 78.6187 247.072 79.09 246.68 79.454C246.297 79.818 245.76 80 245.07 80H241.668V73H244.79C245.462 73 245.984 73.1727 246.358 73.518C246.74 73.8633 246.932 74.316 246.932 74.876C246.932 75.576 246.661 76.0847 246.12 76.402ZM244.79 73.896H242.592V76.024H244.79C245.602 76.024 246.008 75.66 246.008 74.932C246.008 74.6053 245.9 74.3533 245.686 74.176C245.48 73.9893 245.182 73.896 244.79 73.896ZM242.592 79.104H245.07C245.48 79.104 245.793 79.006 246.008 78.81C246.232 78.614 246.344 78.3387 246.344 77.984C246.344 77.648 246.232 77.3867 246.008 77.2C245.793 77.0133 245.48 76.92 245.07 76.92H242.592V79.104ZM258.034 79.118C257.315 79.818 256.447 80.168 255.43 80.168C254.394 80.168 253.521 79.818 252.812 79.118C252.102 78.4087 251.748 77.536 251.748 76.5C251.748 75.464 252.102 74.596 252.812 73.896C253.521 73.1867 254.394 72.832 255.43 72.832C256.456 72.832 257.324 73.1867 258.034 73.896C258.752 74.596 259.112 75.464 259.112 76.5C259.112 77.5267 258.752 78.3993 258.034 79.118ZM253.47 78.474C254.002 79.006 254.655 79.272 255.43 79.272C256.204 79.272 256.858 79.006 257.39 78.474C257.922 77.9233 258.188 77.2653 258.188 76.5C258.188 75.7253 257.922 75.072 257.39 74.54C256.858 73.9987 256.204 73.728 255.43 73.728C254.655 73.728 254.002 73.9987 253.47 74.54C252.938 75.072 252.672 75.7253 252.672 76.5C252.672 77.2653 252.938 77.9233 253.47 78.474ZM269.114 76.052V73H270.038V80H269.114V76.948H265.082V80H264.158V73H265.082V76.052H269.114ZM278.012 74.372V73H278.936V80H278.012V78.628C277.368 79.6547 276.425 80.168 275.184 80.168C274.185 80.168 273.331 79.8133 272.622 79.104C271.922 78.3947 271.572 77.5267 271.572 76.5C271.572 75.4733 271.922 74.6053 272.622 73.896C273.331 73.1867 274.185 72.832 275.184 72.832C276.425 72.832 277.368 73.3453 278.012 74.372ZM273.294 78.474C273.826 79.006 274.479 79.272 275.254 79.272C276.028 79.272 276.682 79.006 277.214 78.474C277.746 77.9233 278.012 77.2653 278.012 76.5C278.012 75.7253 277.746 75.072 277.214 74.54C276.682 73.9987 276.028 73.728 275.254 73.728C274.479 73.728 273.826 73.9987 273.294 74.54C272.762 75.072 272.496 75.7253 272.496 76.5C272.496 77.2653 272.762 77.9233 273.294 78.474ZM289.348 79.104V73H290.272V80H280.892V73H281.816V79.104H285.12V73H286.044V79.104H289.348ZM295.46 72.832C296.505 72.832 297.341 73.2007 297.966 73.938C298.61 74.666 298.932 75.5293 298.932 76.528C298.932 76.5747 298.923 76.7193 298.904 76.962H292.758C292.851 77.662 293.15 78.222 293.654 78.642C294.158 79.062 294.788 79.272 295.544 79.272C296.608 79.272 297.359 78.8753 297.798 78.082L298.61 78.558C298.302 79.062 297.877 79.4587 297.336 79.748C296.804 80.028 296.202 80.168 295.53 80.168C294.429 80.168 293.533 79.8227 292.842 79.132C292.151 78.4413 291.806 77.564 291.806 76.5C291.806 75.4453 292.147 74.5727 292.828 73.882C293.509 73.182 294.387 72.832 295.46 72.832ZM295.46 73.728C294.732 73.728 294.121 73.9427 293.626 74.372C293.141 74.8013 292.851 75.366 292.758 76.066H297.98C297.877 75.3193 297.593 74.7453 297.126 74.344C296.641 73.9333 296.085 73.728 295.46 73.728ZM305.162 71.88H301.522V71.068H305.162V71.88ZM301.326 78.39L305.498 73H306.282V80H305.358V74.61L301.186 80H300.402V73H301.326V78.39ZM132.884 98.36L136.636 102H135.404L131.904 98.626V102H130.98V95H131.904V98.094L135.236 95H136.496L132.884 98.36ZM143.067 101.118C142.348 101.818 141.48 102.168 140.463 102.168C139.427 102.168 138.554 101.818 137.845 101.118C137.135 100.409 136.781 99.536 136.781 98.5C136.781 97.464 137.135 96.596 137.845 95.896C138.554 95.1867 139.427 94.832 140.463 94.832C141.489 94.832 142.357 95.1867 143.067 95.896C143.785 96.596 144.145 97.464 144.145 98.5C144.145 99.5267 143.785 100.399 143.067 101.118ZM138.503 100.474C139.035 101.006 139.688 101.272 140.463 101.272C141.237 101.272 141.891 101.006 142.423 100.474C142.955 99.9233 143.221 99.2653 143.221 98.5C143.221 97.7253 142.955 97.072 142.423 96.54C141.891 95.9987 141.237 95.728 140.463 95.728C139.688 95.728 139.035 95.9987 138.503 96.54C137.971 97.072 137.705 97.7253 137.705 98.5C137.705 99.2653 137.971 99.9233 138.503 100.474ZM151.487 95H152.551V102H151.627V96.414L149.177 100.39H149.065L146.615 96.414V102H145.691V95H146.755L149.121 98.836L151.487 95ZM154.509 95H160.389V102H159.465V95.896H155.433V102H154.509V95ZM168.363 96.372V95H169.287V102H168.363V100.628C167.719 101.655 166.777 102.168 165.535 102.168C164.537 102.168 163.683 101.813 162.973 101.104C162.273 100.395 161.923 99.5267 161.923 98.5C161.923 97.4733 162.273 96.6053 162.973 95.896C163.683 95.1867 164.537 94.832 165.535 94.832C166.777 94.832 167.719 95.3453 168.363 96.372ZM163.645 100.474C164.177 101.006 164.831 101.272 165.605 101.272C166.38 101.272 167.033 101.006 167.565 100.474C168.097 99.9233 168.363 99.2653 168.363 98.5C168.363 97.7253 168.097 97.072 167.565 96.54C167.033 95.9987 166.38 95.728 165.605 95.728C164.831 95.728 164.177 95.9987 163.645 96.54C163.113 97.072 162.847 97.7253 162.847 98.5C162.847 99.2653 163.113 99.9233 163.645 100.474ZM176.2 98.052V95H177.124V102H176.2V98.948H172.168V102H171.244V95H172.168V98.052H176.2ZM180.002 100.39L184.174 95H184.958V102H184.034V96.61L179.862 102H179.078V95H180.002V100.39ZM187.836 100.39L192.008 95H192.792V102H191.868V96.61L187.696 102H186.912V95H187.836V100.39ZM199.646 95.63C199.646 95.8447 199.571 96.0267 199.422 96.176C199.272 96.3253 199.09 96.4 198.876 96.4C198.661 96.4 198.479 96.3253 198.33 96.176C198.18 96.0267 198.106 95.8447 198.106 95.63C198.106 95.4153 198.18 95.2333 198.33 95.084C198.479 94.9347 198.661 94.86 198.876 94.86C199.09 94.86 199.272 94.9347 199.422 95.084C199.571 95.2333 199.646 95.4153 199.646 95.63ZM199.646 101.37C199.646 101.585 199.571 101.767 199.422 101.916C199.272 102.065 199.09 102.14 198.876 102.14C198.661 102.14 198.479 102.065 198.33 101.916C198.18 101.767 198.106 101.585 198.106 101.37C198.106 101.155 198.18 100.973 198.33 100.824C198.479 100.675 198.661 100.6 198.876 100.6C199.09 100.6 199.272 100.675 199.422 100.824C199.571 100.973 199.646 101.155 199.646 101.37ZM201.836 103.4H200.912C201.939 101.347 202.452 99.2467 202.452 97.1C202.452 94.9533 201.939 92.8533 200.912 90.8H201.836C202.863 92.8533 203.376 94.9533 203.376 97.1C203.376 99.2467 202.863 101.347 201.836 103.4Z" fill="#333333"/>
<g clip-path="url(#clip1_75_718)">
<path d="M402 35.5561L407.778 29.7781L408.761 30.7613L402.983 36.5394L408.761 42.3174L407.778 43.3006L402 37.5226L396.222 43.3006L395.239 42.3174L401.017 36.5394L395.239 30.7613L396.222 29.7781L402 35.5561Z" fill="#333333"/>
</g>
</g>
<defs>
<clipPath id="clip0_75_718">
<rect width="438" height="132" rx="32" fill="white"/>
</clipPath>
<clipPath id="clip1_75_718">
<rect width="24" height="24" fill="white" transform="translate(390 24)"/>
</clipPath>
</defs>
</svg>
